<svg xmlns="http://www.w3.org/2000/svg" width="64" height="64" fill="none" viewBox="0 0 64 64"><rect width="64" height="64" fill="#176fc1" rx="7.291"/><path fill="#fff" d="m12 10 4.563 3.298v5.75L12 15.75zM12 16.11l4.563 3.298v5.75L12 21.86zM12 22.22l4.563 3.297v5.75L12 27.97z"/><path fill="#fff" fill-opacity=".7" d="m12 28.329 4.563 3.298v5.75L12 34.08z"/><path fill="#fff" d="m12 34.438 4.563 3.298v5.75L12 40.19z"/><path fill="#fff" fill-opacity=".7" d="m21.697 17.009 4.564 3.298v5.75l-4.564-3.298zM21.697 23.118l4.564 3.298v5.75l-4.564-3.298z"/><path fill="#fff" d="m21.697 29.228 4.564 3.298v5.75l-4.564-3.298z"/><path fill="#fff" fill-opacity=".4" d="m21.697 35.338 4.564 3.298v5.75l-4.564-3.298zM21.697 41.447l4.564 3.298v5.75l-4.564-3.298z"/><path fill="#fff" fill-opacity=".7" d="m16.848 13.504 4.563 3.298v5.75l-4.563-3.297z"/><path fill="#fff" fill-opacity=".4" d="m16.848 19.614 4.563 3.298v5.75l-4.563-3.298z"/><path fill="#fff" d="m16.848 25.724 4.563 3.298v5.75l-4.563-3.298z"/><path fill="#fff" fill-opacity=".7" d="m16.848 31.833 4.563 3.298v5.75l-4.563-3.298zM16.848 37.943l4.563 3.298v5.75l-4.563-3.298z"/><path fill="#fff" fill-opacity=".4" d="m26.545 20.513 4.563 3.298v5.75l-4.563-3.298z"/><path fill="#fff" d="m26.545 26.623 4.563 3.298v5.75l-4.563-3.298z"/><path fill="#fff" fill-opacity=".7" d="m26.545 32.732 4.563 3.298v5.75l-4.563-3.298z"/><path fill="#fff" d="m26.545 38.842 4.563 3.298v5.75l-4.563-3.298zM26.545 44.951l4.563 3.299V54l-4.563-3.298zM32.89 10l4.563 3.298v5.75L32.89 15.75zM32.89 16.11l4.563 3.298v5.75L32.89 21.86zM32.89 22.22l4.563 3.297v5.75L32.89 27.97z"/><path fill="#fff" fill-opacity=".7" d="m32.89 28.329 4.563 3.298v5.75L32.89 34.08z"/><path fill="#fff" d="m32.89 34.438 4.563 3.298v5.75L32.89 40.19z"/><path fill="#fff" fill-opacity=".7" d="m42.587 17.009 4.564 3.298v5.75l-4.564-3.298zM42.587 23.118l4.564 3.298v5.75l-4.564-3.298z"/><path fill="#fff" d="m42.587 29.228 4.564 3.298v5.75l-4.564-3.298z"/><path fill="#fff" fill-opacity=".2" d="m42.587 35.338 4.564 3.298v5.75l-4.564-3.298z"/><path fill="#fff" fill-opacity=".4" d="m42.587 41.447 4.564 3.298v5.75l-4.564-3.298z"/><path fill="#fff" fill-opacity=".7" d="m37.74 13.504 4.563 3.298v5.75l-4.564-3.297z"/><path fill="#fff" fill-opacity=".2" d="m37.74 19.614 4.563 3.298v5.75l-4.564-3.298z"/><path fill="#fff" fill-opacity=".7" d="m37.74 25.724 4.563 3.298v5.75l-4.564-3.298zM37.74 31.833l4.563 3.298v5.75l-4.564-3.298zM37.74 37.943l4.563 3.298v5.75l-4.564-3.298z"/><path fill="#fff" fill-opacity=".4" d="M47.437 20.513 52 23.811v5.75l-4.563-3.298zM47.437 26.623 52 29.92v5.75l-4.563-3.298z"/><path fill="#fff" fill-opacity=".7" d="M47.437 32.732 52 36.03v5.75l-4.563-3.298z"/><path fill="#fff" d="M47.437 38.842 52 42.14v5.75l-4.563-3.298zM47.437 44.951 52 48.25V54l-4.563-3.298z"/></svg>